<svg xmlns="http://www.w3.org/2000/svg" style="display: none;" >

<symbol id="left" viewBox="0 0 25 40" width="100%" height="100%">
<title>left</title>
<polygon points="25,0 20,0 0,20 20,40 25,40 5,20 "/>
</symbol>

<symbol id="right" viewBox="0 0 25 40" width="100%" height="100%">
<title>right</title>
<polygon points="0,40 5,40 25,20 5,0 0,0 20,20 "/>
</symbol>

<symbol id="close" viewBox="0 0 40 40" width="100%" height="100%">
<title>close</title>
<polygon points="39,3 37,1 20,18 3,1 1,3 18,20 1,37 3,39 20,23 37,39 39,37 23,20 "/>
</symbol>

<symbol id="vk" viewBox="0 0 24 24" width="100%" height="100%">
<title>vk</title>
<path d="M16.066 11.93s1.62-2.286 1.782-3.037c.054-.268-.064-.418-.343-.418h-1.406c-.322 0-.44.139-.537.343 0 0-.76 1.619-1.685 2.64-.297.33-.448.429-.612.429-.132 0-.193-.11-.193-.408v-2.607c0-.365-.043-.472-.343-.472h-2.254c-.172 0-.279.1-.279.236 0 .343.526.421.526 1.352v1.921c0 .386-.022.537-.204.537-.483 0-1.631-1.663-2.274-3.552-.129-.386-.268-.494-.633-.494h-1.406c-.204 0-.354.139-.354.343 0 .375.44 2.114 2.167 4.442 1.159 1.566 2.683 2.414 4.056 2.414.838 0 1.041-.139 1.041-.494v-1.202c0-.301.118-.429.29-.429.193 0 .534.062 1.33.848.945.901 1.01 1.276 1.525 1.276h1.578c.161 0 .311-.075.311-.343 0-.354-.462-.987-1.17-1.738-.29-.386-.762-.805-.912-.998-.215-.226-.151-.354-.001-.59z"></path>
</symbol>

<symbol id="ok" viewBox="0 0 32 32" width="100%" height="100%">
<title>odnoclassniki</title>
<path d="M120.001,753.38c10.372,0,18.807-8.435,18.807-18.807c0-10.362-8.435-18.799-18.807-18.799 c-10.362,0-18.807,8.437-18.807,18.799C101.194,744.945,109.639,753.38,120.001,753.38z M120.001,689.164 c25.055,0,45.422,20.367,45.422,45.409c0,25.052-20.367,45.427-45.422,45.427c-25.049,0-45.422-20.375-45.422-45.427 C74.579,709.532,94.952,689.164,120.001,689.164z M138.378,652.109c9.247,2.107,18.165,5.765,26.377,10.925 c6.215,3.917,8.089,12.134,4.172,18.35c-3.912,6.23-12.124,8.103-18.35,4.186c-18.605-11.703-42.561-11.698-61.156,0 c-6.227,3.917-14.438,2.043-18.346-4.186c-3.917-6.221-2.049-14.433,4.168-18.35c8.211-5.154,17.129-8.818,26.376-10.925 l-25.395-25.394c-5.192-5.197-5.192-13.621,0.005-18.817c2.601-2.596,6.004-3.897,9.406-3.897c3.408,0,6.816,1.3,9.417,3.897 l24.943,24.954l24.965-24.954c5.192-5.197,13.616-5.197,18.812,0c5.202,5.196,5.202,13.626,0,18.817 C163.773,626.715,138.378,652.109,138.378,652.109z" transform="matrix(.125 0 0 -.125 0 102.5)"/>
</symbol>

<symbol id="fb" viewBox="0 0 24 24" width="100%" height="100%">
<title>facebook</title>
<path d="M14.889 8.608h-1.65c-.195 0-.413.257-.413.6v1.192h2.063v1.698h-2.063v5.102h-1.948v-5.102h-1.766v-1.698h1.766v-1c0-1.434.995-2.6 2.361-2.6h1.65v1.808z"></path>
</symbol>

<symbol id="chat" viewBox="0 0 400 329" width="100%" height="100%">
<title>chat</title>
<path d="M0 192c0,-48 0,-96 0,-144 0,-27 25,-48 56,-48 77,0 154,0 231,0 31,0 56,22 56,48 0,48 0,96 0,144 0,27 -25,48 -56,48 -47,0 -96,0 -143,0 -26,29 -50,59 -76,88 0,-29 0,-59 0,-88 -4,0 -8,0 -12,0 -31,0 -56,-22 -56,-48z"/>
<path d="M160 264l0 -16 127 0c32,0 64,-22 64,-56l0 -56 10 0c22,0 39,14 39,32 0,32 0,64 0,96 0,18 -18,32 -39,32 -3,0 -6,0 -9,0 0,11 0,22 0,33 -18,-11 -34,-22 -52,-33 -33,0 -68,0 -101,0 -22,0 -39,-14 -39,-32z"/>
</symbol>

<symbol id="roulette" viewBox="0 0 400 256" width="100%" height="100%">
<title>roulette</title>
<path class="fil0" d="M256 129c0,0 0,0 0,-1 0,-71 -57,-128 -128,-128 -71,0 -128,57 -128,128l0 92c0,20 16,36 36,36l208 0c20,0 36,-16 36,-36l0 0c0,-14 -8,-26 -20,-32l-4 -59zm-128 -81c44,0 80,36 80,80 0,44 -36,80 -80,80 -44,0 -80,-36 -80,-80 0,-44 36,-80 80,-80zm0 148c38,0 68,-30 68,-68 0,-38 -30,-68 -68,-68 -38,0 -68,30 -68,68 0,38 30,68 68,68z"/>
<path class="fil0" d="M272 256c22,-12 23,-49 8,-60l120 0 0 60 -28 0 0 -24 -4 0 0 24 -12 0 0 -36 -4 0 0 36 -12 0 0 -24 -4 0 0 24 -12 0 0 -36 -4 0 0 36 -12 0 0 -24 -4 0 0 24 -32 0z"/>
</symbol>

<symbol id="calc" viewBox="0 0 400 400" width="100%" height="100%">
<title>calc</title>
<path d="M400 400l-176 0 0 -400 176 0 0 400zm-156 -224l136 0 0 -24 -136 0 0 24zm0 72l136 0 0 -24 -136 0 0 24z"/>
<path d="M176 400l-176 0 0 -176 176 0 0 176zm-156 -76l136 0 0 -24 -136 0 0 24z"/>
<path d="M176 176l-176 0 0 -176 176 0 0 176zm-156 -76l56 0 0 56 24 0 0 -56 56 0 0 -24 -56 0 0 -56 -24 0 0 56 -56 0 0 24z"/>
</symbol>

<symbol id="contract" viewBox="0 0 345 379" width="100%" height="100%">
<title>contract</title>
<path class="fil0" d="M4 46l42 0 0 -42 -42 42zm46 4l0 -49 243 0 0 379 -292 0 0 -330 49 0 0 0z"/>
<path class="fil0" d="M341 148c2,0 4,2 4,4l0 49 -4 0 0 -30 -4 0 0 -23 4 0zm-19 186l11 -23 -23 0 11 23zm11 -197l0 171 -23 0 0 -171 23 0zm-8 -15c5,0 8,7 8,11l-23 0c0,-4 3,-11 8,-11l8 0z"/>
</symbol>

<symbol id="delivery" viewBox="0 0 400 188" width="100%" height="100%">
<title>delivery</title>
<path d="M0 0l240 0 0 160 -132 0c0,-1 0,-3 0,-4 0,-22 -18,-40 -40,-40 -22,0 -40,18 -40,40 0,1 0,3 0,4l-28 0 0 -160zm52 60l0 -48 -12 0 0 96 12 0 0 -32 16 -16 32 48 16 0 -40 -56 40 -40 -16 0 -48 48zm92 -48l-16 0 0 96 12 0 0 -76 24 76 16 0 24 -76 0 76 12 0 0 -96 -16 0 -28 84 -28 -84zm116 20l0 128 40 0c0,-1 0,-3 0,-4 0,-22 18,-40 40,-40 22,0 40,18 40,40 0,1 0,3 0,4l20 0 0 -56 -28 -20 -28 -52 -84 0zm16 16l52 0 20 36 -72 0 0 -36zm64 76c18,0 32,14 32,32 0,18 -14,32 -32,32 -18,0 -32,-14 -32,-32 0,-18 14,-32 32,-32zm0 20c7,0 12,5 12,12 0,7 -5,12 -12,12 -7,0 -12,-5 -12,-12 0,-7 5,-12 12,-12zm-272 -20c18,0 32,14 32,32 0,18 -14,32 -32,32 -18,0 -32,-14 -32,-32 0,-18 14,-32 32,-32zm0 20c7,0 12,5 12,12 0,7 -5,12 -12,12 -7,0 -12,-5 -12,-12 0,-7 5,-12 12,-12z"/>
<path d="M0 0l240 0 0 160 -132 0c0,-1 0,-3 0,-4 0,-22 -18,-40 -40,-40 -22,0 -40,18 -40,40 0,1 0,3 0,4l-28 0 0 -160zm52 60l0 -48 -12 0 0 96 12 0 0 -32 16 -16 32 48 16 0 -40 -56 40 -40 -16 0 -48 48zm92 -48l-16 0 0 96 12 0 0 -76 24 76 16 0 24 -76 0 76 12 0 0 -96 -16 0 -28 84 -28 -84zm116 20l0 128 40 0c0,-1 0,-3 0,-4 0,-22 18,-40 40,-40 22,0 40,18 40,40 0,1 0,3 0,4l20 0 0 -56 -28 -20 -28 -52 -84 0zm16 16l52 0 20 36 -72 0 0 -36zm64 76c18,0 32,14 32,32 0,18 -14,32 -32,32 -18,0 -32,-14 -32,-32 0,-18 14,-32 32,-32zm0 20c7,0 12,5 12,12 0,7 -5,12 -12,12 -7,0 -12,-5 -12,-12 0,-7 5,-12 12,-12zm-272 -20c18,0 32,14 32,32 0,18 -14,32 -32,32 -18,0 -32,-14 -32,-32 0,-18 14,-32 32,-32zm0 20c7,0 12,5 12,12 0,7 -5,12 -12,12 -7,0 -12,-5 -12,-12 0,-7 5,-12 12,-12zm168 -140l-232 0 0 152 20 0 0 0c0,-12 5,-23 13,-31 8,-8 19,-13 31,-13 12,0 23,5 31,13 8,8 13,19 13,31l0 0 124 0 0 -152zm-180 8l0 38 41 -41 1 -1 2 0 16 0 8 0 2 0 2 0 8 0 0 -2 1 2 7 0 3 0 1 3 24 73 24 -73 1 -3 3 0 7 0 1 -2 0 2 8 0 4 0 0 4 0 96 0 4 -4 0 -12 0 -4 0 0 -4 0 -50 -16 51 -1 3 -3 0 -16 0 -3 0 -1 -3 -16 -51 0 50 0 4 -4 0 -12 0 -4 0 0 -4 0 -96 0 -2 -5 5 -38 38 38 53 5 6 -8 0 -16 0 -2 0 -1 -2 -29 -44 -11 11 0 30 0 4 -4 0 -12 0 -4 0 0 -4 0 -96 0 -4 4 0 12 0 4 0 0 4zm208 24l0 120 32 0 0 0c0,-12 5,-23 13,-31 8,-8 19,-13 31,-13 12,0 23,5 31,13 8,8 13,19 13,31l0 0 12 0 0 -50 -26 -19 -1 -1 0 -1 -27 -50 -78 0zm12 8l52 0 2 0 1 2 20 36 3 6 -7 0 -72 0 -4 0 0 -4 0 -36 0 -4 4 0zm84 92c-5,-5 -12,-8 -20,-8 -8,0 -15,3 -20,8l0 0c-5,5 -8,12 -8,20 0,8 3,15 8,20l0 0c5,5 12,8 20,8 8,0 15,-3 20,-8l0 0c5,-5 8,-12 8,-20 0,-8 -3,-15 -8,-20l0 0zm-20 4c4,0 8,2 11,5 3,3 5,7 5,11 0,4 -2,8 -5,11l0 0c0,0 0,0 0,0 0,0 0,0 0,0l0 0c-3,3 -7,5 -11,5 -4,0 -8,-2 -11,-5 -3,-3 -5,-7 -5,-11 0,-4 2,-8 5,-11l0 0c3,-3 7,-5 11,-5zm-252 -4c-5,-5 -12,-8 -20,-8 -8,0 -15,3 -20,8l0 0c-5,5 -8,12 -8,20 0,8 3,15 8,20l0 0c5,5 12,8 20,8 8,0 15,-3 20,-8l0 0c5,-5 8,-12 8,-20 0,-8 -3,-15 -8,-20l0 0zm-20 4c4,0 8,2 11,5 3,3 5,7 5,11 0,4 -2,8 -5,11l0 0c-3,3 -7,5 -11,5 -4,0 -8,-2 -11,-5 -3,-3 -5,-7 -5,-11 0,-4 2,-8 5,-11l0 0c0,0 0,0 0,0 0,0 0,0 0,0l0 0c3,-3 7,-5 11,-5z"/>
</symbol>


</svg>



