<?xml version="1.0" encoding="UTF-8"?>
<!DOCTYPE svg PUBLIC "-//W3C//DTD SVG 1.0//EN" "http://www.w3.org/TR/2001/REC-SVG-20010904/DTD/svg10.dtd">
<!-- Creator: CorelDRAW 2017 -->
<svg xmlns="http://www.w3.org/2000/svg" xml:space="preserve" width="180px" height="181px" version="1.0" style="shape-rendering:geometricPrecision; text-rendering:geometricPrecision; image-rendering:optimizeQuality; fill-rule:evenodd; clip-rule:evenodd"
viewBox="0 0 2623000 2635600"
 xmlns:xlink="http://www.w3.org/1999/xlink">
 <defs>
  <style type="text/css">
   <![CDATA[
    .str1 {stroke:white;stroke-width:14000;stroke-miterlimit:22.9256}
    .str0 {stroke:white;stroke-width:3100;stroke-miterlimit:22.9256}
    .fil1 {fill:none}
    .fil0 {fill:white}
   ]]>
  </style>
 </defs>
 <g id="Слой_x0020_1">
  <metadata id="CorelCorpID_0Corel-Layer"/>
  <g id="_1959426686640">
   <path id="М" class="fil0 str0" d="M2480000 1380600l-69300 0 0 -505300 -263000 505300 -58100 0 -263000 -505300 0 505300 -69300 0 0 -569100 106700 0 254700 484500 254600 -484500 106700 0 0 569100 0 0zm141400 -284600c0,-277600 -225100,-502700 -502700,-502700 -277700,0 -502800,225100 -502800,502700 0,277700 225100,502800 502800,502800 277600,0 502700,-225100 502700,-502800z"/>
   <path id="К" class="fil0 str0" d="M1702600 1995800l-550400 0 -847500 -918300 847500 -881200 550400 0 -848800 881200 848800 918300zm-1470100 0l-227400 0 0 -1799500 227700 0 -300 1799500z"/>
   <path id="К-МЕБЕЛЬ" class="fil0 str0" d="M288200 2468400l-51100 0 -162600 -172900 158200 -164600 48800 0 -158100 161000 164800 176500 0 0zm-242000 0l-41100 0 0 -337500 41100 0 0 337500zm350500 -213700c25200,0 45500,20100 45500,44900 0,24900 -20300,45000 -45500,45000 -25100,0 -45500,-20100 -45500,-45000 0,-24800 20400,-44900 45500,-44900zm537000 213700l-41000 0 0 -299600 -156000 299600 -34400 0 -156000 -299600 0 299600 -41000 0 0 -337500 63200 0 151000 287300 151000 -287300 63200 0 0 337500 0 0zm288400 0l-225300 0 0 -337500 225300 0 0 30600 -184200 0 0 121700 178100 0 0 30600 -178100 0 0 124000 184200 0 0 30600 0 0zm329000 -99000c0,5100 -400,10000 -1100,14700l-400 2600 -200 1300 -300 1200 -900 3800c-600,2400 -1300,4800 -2200,7200 -1000,2800 -2100,5500 -3400,8100 5600,-11600 8500,-24600 8500,-38900 0,-14500 -2600,-27500 -7700,-39200 1600,3600 2900,7200 4000,11000l100 600 900 3500 500 2300 100 400 700 3700c600,3400 1000,7000 1200,10700 100,2300 200,4600 200,7000l0 0zm-8500 38900c-700,1500 -1500,3000 -2300,4400l1700 -3300 600 -1100 0 0zm-4200 7700c-1600,2500 -3300,4900 -5200,7300 -5000,6400 -11100,12300 -18200,17700 -9000,6800 -19100,12400 -30200,16700l-1400 500c-5600,2100 -11400,3900 -17600,5300l-3000 700 -1600 300 -1600 300c-4700,900 -9500,1700 -14500,2300l-3400 300 -3400 300c-5700,400 -11600,700 -17700,700l-135400 0 0 -337400 223100 0 0 30500 -182000 0 0 109000 94300 0c7900,0 15500,300 22700,900l7100 700 1700 300c7600,900 14600,2300 21300,3900 -15400,-3800 -33000,-5800 -52800,-5800l-94300 0 -100 0 0 0 0 -109000 0 0 100 0 182000 0 0 -30500 -223100 0 0 337400 135400 0c19400,0 37000,-2300 52700,-6900 15800,-4500 29600,-11400 41700,-20500 9700,-7400 17500,-15800 23400,-25000l0 0zm-63400 -139300c16800,4500 30900,11300 42500,20400 3500,2800 6700,5800 9700,8800l800 1000c2400,2500 4500,5100 6500,7700l700 1100c2700,3700 5000,7600 6900,11700 -5600,-11500 -13800,-21600 -24600,-30200 -11200,-8900 -24900,-15600 -41000,-20000l-1500 -500 0 0zm35000 92700c0,-3000 -200,-5900 -500,-8700 300,2800 500,5700 500,8700 0,2400 -100,4800 -400,7100 300,-2300 400,-4700 400,-7100zm-2200 -17600c-700,-2400 -1500,-4700 -2400,-7000l300 700c800,2000 1500,4100 2100,6300zm-3000 -8400c-1600,-3700 -3700,-7300 -6100,-10700 2400,3400 4500,7000 6100,10700zm-6200 -10900c-1700,-2400 -3700,-4700 -5800,-6900 -7500,-7900 -17000,-13900 -28400,-18000 -3700,-1400 -7600,-2500 -11700,-3400 3700,800 7200,1800 10500,3000 12000,4100 21900,10200 29600,18400 2100,2200 4000,4500 5800,6900l0 0zm-45900 -28300c-1700,-400 -3300,-700 -5000,-1000 1700,300 3300,600 5000,1000zm-5000 -1000c-3900,-700 -7900,-1200 -12000,-1600 4100,400 8100,900 12000,1600zm-12000 -1600c-4600,-400 -9500,-600 -14500,-600l-94900 0 0 136800 94900 0c4000,0 7800,-100 11500,-400 -3700,300 -7500,400 -11500,400l-94900 0 -100 0 0 0 0 -136800 0 0 100 0 94900 0c5000,0 9900,200 14500,600l0 0zm22700 131500c5800,-1600 11000,-3700 15900,-6200 -3600,1900 -7400,3500 -11500,4900l-4400 1300zm15900 -6200c2300,-1200 4500,-2500 6600,-3800 -2100,1300 -4300,2600 -6600,3800zm7400 -4400c3900,-2700 7400,-5600 10500,-8900 4100,-4200 7500,-8800 10100,-13600 1400,-2400 2500,-4900 3500,-7400l-200 600c-3000,7400 -7500,14300 -13400,20500 -3100,3200 -6600,6200 -10500,8800zm25600 -34200c500,-1600 900,-3300 1300,-5100 -400,1800 -800,3500 -1300,5100zm43800 -18900c0,29500 -12100,53400 -36100,71600 -24100,18200 -55500,27400 -94400,27400l-135400 0 0 -337500 223100 0 0 30600 -182000 0 0 109000 94300 0c42200,0 74500,8900 96900,26600 22400,17800 33600,41900 33600,72300l0 0zm-41100 0c0,-17300 -5800,-31900 -17200,-43800 -15500,-16400 -39400,-24600 -71600,-24600l-94900 0 0 136800 94900 0c31800,0 55500,-8100 71000,-24200 11900,-12400 17800,-27200 17800,-44200zm329500 99000l-225400 0 0 -337500 225400 0 0 30600 -184300 0 0 121700 178200 0 0 30600 -178200 0 0 124000 184300 0 0 30600 0 0zm441500 0l-44900 0 -143800 -295000 -144800 295000 -45000 0 170400 -337500 38900 0 169200 337500 0 0zm329000 -99000c0,4600 -300,9100 -900,13400l-200 1300 -400 2600 -200 1100 -100 400 -100 800 -100 400 -900 3600c-400,1600 -800,3200 -1400,4800l-800 2400c-1400,3900 -3100,7800 -5100,11400l0 0c-6000,11100 -14600,20800 -25900,29400 -7900,6000 -16600,11000 -26100,15000 -3100,1400 -6400,2600 -9700,3700l-4400 1400 -4400 1200 -4500 1200 -4700 1000 -3100 600 -4800 900c-2700,400 -5400,700 -8200,1000l-3400 400c-6700,600 -13800,1000 -21100,1000l-135400 0 0 -337500 41100 0 0 139600 94300 0c5800,0 11400,200 16800,500l100 0c3000,200 5900,400 8800,700l1700 200 1600 200 1000 100 900 100 3300 500 1700 300 1600 200 1700 300c8900,1500 17300,3700 25000,6400 -3000,-1100 -6200,-2000 -9400,-2900 -16000,-4400 -34200,-6600 -54800,-6600l-94300 0 0 0 0 0 0 -139500 -41100 0 0 337300 135400 0c19500,0 37100,-2200 52800,-6800 15700,-4500 29600,-11400 41600,-20500 12000,-9100 21100,-19700 27100,-31600 6000,-11900 9000,-25200 9000,-40000l0 -2100 0 2100 0 0zm-66000 -89300c2800,1000 5400,2000 8000,3100 -2600,-1100 -5200,-2100 -8000,-3100zm8200 3200c8600,3700 16400,8300 23400,13600 4500,3500 8600,7200 12200,11200l500 600 700 700c1100,1300 2200,2600 3200,3900l400 500 800 1000 300 600 1500 2000c1900,2800 3600,5600 5100,8600 800,1500 1500,3000 2100,4600l1500 3500 900 2300 400 1200c500,1600 1000,3300 1400,4900l400 1300c400,1700 800,3400 1100,5100 600,3000 1100,6100 1400,9300 300,3000 400,6000 500,9100 -300,-14500 -3200,-27500 -8600,-39000 -5700,-12100 -14400,-22500 -25800,-31400 -7000,-5300 -14800,-9900 -23400,-13600zm16700 86100c0,-3000 -200,-5900 -500,-8700 300,2800 500,5700 500,8700 0,2400 -100,4800 -300,7100 200,-2300 300,-4700 300,-7100zm-2200 -17600c-700,-2400 -1400,-4700 -2400,-7000l300 700c800,2000 1500,4100 2100,6300zm-2900 -8400c-1000,-2200 -2100,-4400 -3400,-6500 1300,2100 2400,4300 3400,6500zm-3400 -6500c-2400,-4000 -5300,-7700 -8700,-11300 -3600,-3800 -7700,-7200 -12300,-10200 4600,3000 8700,6400 12300,10200 3400,3500 6300,7300 8700,11300zm-23800 -23200c-4100,-2400 -8600,-4400 -13300,-6100 -3900,-1400 -8000,-2600 -12300,-3500 3900,800 7600,1800 11100,3100 5300,1700 10100,3900 14500,6500l0 0zm-30000 -10500c-2600,-500 -5200,-900 -7900,-1200 2700,300 5300,700 7900,1200zm-12000 -1600c-4600,-400 -9500,-600 -14500,-600l-94900 0 0 136800 94900 0c4000,0 7800,-100 11600,-400 -3800,300 -7600,400 -11600,400l-94900 0 0 0 0 0 0 -136800 0 0 0 0 94900 0c5000,0 9900,200 14500,600l0 0zm22600 131600c13900,-4000 25200,-10500 34000,-19600 4900,-5100 8800,-10700 11600,-16600l200 -300 600 -1400c2400,-5400 4000,-11200 4800,-17300 -700,5300 -2000,10400 -3900,15300 -3000,7300 -7400,14200 -13300,20300 -7800,8100 -17600,14200 -29500,18200 -1400,500 -3000,900 -4500,1400l0 0zm92800 -63800c0,29500 -12000,53400 -36100,71600 -24000,18200 -55500,27400 -94300,27400l-135500 0 0 -337500 41100 0 0 139600 94400 0c41000,0 73000,8800 96000,26400 22900,17700 34400,41800 34400,72500zm-41100 0c0,-17300 -5700,-31900 -17200,-43800 -15500,-16400 -39400,-24600 -71600,-24600l-94900 0 0 136800 94900 0c31800,0 55500,-8100 71100,-24200 11800,-12400 17700,-27200 17700,-44200z"/>
   <line class="fil1 str1" x1="0" y1="7000" x2="2621600" y2= "7000" />
   <line class="fil1 str1" x1="0" y1="2628600" x2="2621600" y2= "2628600" />
  </g>
 </g>
</svg>
