<?xml version="1.0" encoding="UTF-8"?>
<!DOCTYPE svg PUBLIC "-//W3C//DTD SVG 1.0//EN" "http://www.w3.org/TR/2001/REC-SVG-20010904/DTD/svg10.dtd">
<!-- Creator: CorelDRAW 2018 (64-Bit) -->
<svg xmlns="http://www.w3.org/2000/svg" xml:space="preserve" width="256px" height="256px" version="1.0" style="shape-rendering:geometricPrecision; text-rendering:geometricPrecision; image-rendering:optimizeQuality; fill-rule:evenodd; clip-rule:evenodd"
viewBox="0 0 25600000 25600000"
 xmlns:xlink="http://www.w3.org/1999/xlink">
 <defs>
  <style type="text/css">
   <![CDATA[
    .str1 {stroke:#2D333B;stroke-width:400000;stroke-miterlimit:22.9256}
    .str0 {stroke:#2D333B;stroke-width:90000;stroke-miterlimit:22.9256}
    .fil2 {fill:none}
    .fil1 {fill:none;fill-rule:nonzero}
    .fil0 {fill:#2D333B}
   ]]>
  </style>
 </defs>
 <g id="Слой_x0020_1">
  <metadata id="CorelCorpID_0Corel-Layer"/>
  <g id="_2687723281840">
   <g>
    <g>
     <path id="М" class="fil0" d="M24169000 13403000l-676000 0 0 -4935000 -2569000 4935000 -567000 0 -2569000 -4935000 0 4935000 -676000 0 0 -5558000 1042000 0 2487000 4731000 2486000 -4731000 1042000 0 0 5558000 0 0zm1381000 -2779000c0,-2712000 -2198000,-4910000 -4909000,-4910000 -2712000,0 -4910000,2198000 -4910000,4910000 0,2711000 2198000,4909000 4910000,4909000 2711000,0 4909000,-2198000 4909000,-4909000z"/>
     <path id="1" class="fil1 str0" d="M24169000 13403000l-676000 0 0 -4935000 -2569000 4935000 -567000 0 -2569000 -4935000 0 4935000 -676000 0 0 -5558000 1042000 0 2487000 4731000 2486000 -4731000 1042000 0 0 5558000 0 0zm1381000 -2779000c0,-2712000 -2198000,-4910000 -4909000,-4910000 -2712000,0 -4910000,2198000 -4910000,4910000 0,2711000 2198000,4909000 4910000,4909000 2711000,0 4909000,-2198000 4909000,-4909000z"/>
    </g>
    <g>
     <path id="К" class="fil0" d="M16626000 19410000l-5375000 0 -8276000 -8968000 8276000 -8605000 5375000 0 -8288000 8605000 8288000 8968000zm-14355000 0l-2221000 0 0 -17573000 2223000 0 -2000 17573000z"/>
     <path id="1" class="fil1 str0" d="M16626000 19410000l-5375000 0 -8276000 -8968000 8276000 -8605000 5375000 0 -8288000 8605000 8288000 8968000zm-14355000 0l-2221000 0 0 -17573000 2223000 0 -2000 17573000z"/>
    </g>
    <g>
     <path id="К-МЕБЕЛЬ" class="fil0" d="M24910000 22796000c0,-169000 -57000,-311000 -169000,-427000 -151000,-161000 -384000,-241000 -699000,-241000l-927000 0 0 1336000 927000 0c311000,0 542000,-79000 694000,-236000 116000,-122000 174000,-266000 174000,-432000zm401000 0c0,288000 -118000,521000 -353000,699000 -235000,178000 -542000,267000 -921000,267000l-1323000 0 0 -3295000 401000 0 0 1363000 922000 0c401000,0 714000,86000 938000,258000 224000,172000 336000,408000 336000,708000zm-907000 623000c136000,-39000 247000,-103000 332000,-191000 48000,-50000 86000,-105000 114000,-163000l2000 -3000 6000 -13000c23000,-53000 39000,-110000 47000,-169000 -7000,52000 -20000,102000 -39000,149000 -29000,72000 -72000,139000 -130000,199000 -76000,79000 -172000,138000 -287000,177000 -15000,5000 -29000,10000 -45000,14000l0 0zm-220000 -1285000c-46000,-4000 -93000,-6000 -142000,-6000l-927000 0 0 1336000 927000 0c39000,0 77000,-1000 113000,-4000 -36000,3000 -74000,4000 -113000,4000l-927000 0 0 0 0 0 0 -1336000 0 0 0 0 927000 0c49000,0 96000,2000 142000,6000l0 0zm117000 15000c-25000,-4000 -51000,-8000 -77000,-11000 26000,3000 52000,7000 77000,11000zm293000 103000c-40000,-23000 -84000,-43000 -130000,-60000 -38000,-13000 -78000,-25000 -120000,-34000 38000,8000 74000,18000 109000,30000 51000,18000 98000,39000 141000,64000l0 0zm232000 227000c-23000,-39000 -51000,-76000 -85000,-110000 -35000,-38000 -75000,-71000 -120000,-100000 45000,29000 85000,62000 121000,100000 33000,34000 61000,71000 84000,110000zm33000 64000c-9000,-22000 -20000,-43000 -33000,-64000 13000,21000 24000,42000 33000,64000zm29000 81000c-6000,-23000 -14000,-46000 -23000,-68000l3000 6000c7000,21000 14000,41000 20000,62000zm22000 172000c0,-29000 -2000,-57000 -5000,-85000 3000,28000 5000,56000 5000,85000 0,24000 -2000,46000 -4000,69000 2000,-23000 4000,-45000 4000,-69000zm-164000 -841000c84000,37000 161000,81000 229000,133000 44000,34000 84000,71000 119000,110000l5000 5000 6000 7000c11000,13000 22000,26000 32000,38000l4000 5000 7000 10000 4000 5000 14000 20000c18000,27000 35000,55000 50000,85000 7000,14000 14000,29000 21000,44000l14000 34000 8000 23000 5000 12000c5000,15000 10000,32000 14000,48000l3000 12000c4000,16000 8000,33000 11000,50000 6000,29000 10000,60000 14000,91000 2000,29000 4000,58000 5000,88000 -3000,-141000 -31000,-268000 -84000,-381000 -56000,-117000 -141000,-220000 -253000,-306000 -67000,-52000 -144000,-96000 -228000,-133000zm-80000 -31000c27000,10000 53000,20000 78000,31000 -25000,-11000 -51000,-21000 -78000,-31000zm645000 872000c0,45000 -3000,89000 -9000,131000l-2000 13000 -4000 25000 -2000 11000 0 3000 -2000 8000 -1000 4000 -8000 35000c-4000,16000 -9000,32000 -14000,47000l-8000 24000c-14000,38000 -30000,75000 -50000,111000l0 1000c-59000,107000 -143000,203000 -253000,286000 -77000,59000 -162000,107000 -254000,147000 -31000,13000 -63000,25000 -95000,36000l-43000 13000 -43000 13000 -45000 11000 -45000 10000 -31000 6000 -46000 8000c-27000,4000 -54000,7000 -81000,11000l-32000 3000c-66000,6000 -135000,9000 -206000,9000l-1323000 0 0 -3295000 401000 0 0 1363000 922000 0c56000,0 110000,2000 163000,5000l1000 0c30000,2000 58000,4000 86000,7000l17000 2000 15000 2000 10000 1000 9000 1000 33000 5000 16000 2000 16000 3000 16000 3000c87000,15000 169000,36000 244000,62000 -29000,-10000 -60000,-20000 -91000,-28000 -156000,-43000 -335000,-65000 -535000,-65000l-922000 0 0 0 0 0 0 -1362000 -401000 0 0 3294000 1323000 0c189000,0 361000,-22000 515000,-67000 153000,-44000 289000,-111000 406000,-200000 117000,-89000 206000,-192000 265000,-308000 58000,-117000 88000,-247000 88000,-391000l-1000 -21000 1000 21000 0 0zm-3046000 966000l-440000 0 -1403000 -2880000 -1415000 2880000 -439000 0 1664000 -3295000 379000 0 1654000 3295000 0 0zm-4049000 0l-2201000 0 0 -3295000 2201000 0 0 299000 -1800000 0 0 1189000 1740000 0 0 298000 -1740000 0 0 1211000 1800000 0 0 298000 0 0zm-3149000 -966000c0,-169000 -56000,-311000 -168000,-427000 -152000,-161000 -385000,-241000 -699000,-241000l-927000 0 0 1336000 927000 0c310000,0 542000,-79000 693000,-236000 116000,-122000 174000,-266000 174000,-432000zm401000 0c0,288000 -117000,521000 -352000,699000 -235000,178000 -542000,267000 -922000,267000l-1322000 0 0 -3295000 2178000 0 0 299000 -1777000 0 0 1064000 921000 0c412000,0 728000,87000 946000,260000 219000,174000 328000,409000 328000,706000l0 0zm-428000 185000c5000,-16000 10000,-33000 13000,-50000 -3000,17000 -8000,34000 -13000,50000zm-249000 333000c38000,-25000 72000,-54000 102000,-86000 40000,-42000 73000,-86000 99000,-133000 13000,-24000 25000,-48000 34000,-73000l-2000 7000c-29000,72000 -73000,139000 -130000,199000 -31000,32000 -65000,61000 -103000,86000zm-73000 43000c23000,-11000 44000,-24000 64000,-37000 -20000,13000 -41000,26000 -64000,37000zm-155000 61000c56000,-16000 108000,-36000 155000,-61000 -35000,19000 -72000,35000 -112000,48000l-43000 13000zm-222000 -1284000c-45000,-4000 -92000,-6000 -141000,-6000l-927000 0 0 1336000 927000 0c39000,0 76000,-1000 112000,-4000 -36000,3000 -73000,4000 -112000,4000l-927000 0 0 0 0 0 0 -1336000 0 0 0 0 927000 0c49000,0 96000,2000 141000,6000l0 0zm117000 15000c-37000,-6000 -76000,-11000 -117000,-15000 41000,4000 80000,9000 117000,15000zm49000 10000c-16000,-3000 -32000,-7000 -49000,-10000 17000,3000 33000,7000 49000,10000zm448000 277000c-16000,-23000 -35000,-46000 -56000,-67000 -74000,-78000 -166000,-137000 -278000,-177000 -36000,-13000 -74000,-24000 -114000,-33000 36000,8000 71000,18000 103000,29000 117000,40000 213000,101000 289000,181000 21000,21000 39000,44000 56000,67000l0 0zm62000 107000c-17000,-37000 -37000,-72000 -61000,-106000 24000,34000 44000,69000 61000,106000zm28000 81000c-6000,-23000 -14000,-46000 -23000,-68000l3000 6000c8000,21000 14000,41000 20000,62000zm22000 172000c0,-29000 -2000,-57000 -5000,-85000 3000,28000 5000,56000 5000,85000 0,24000 -1000,47000 -4000,69000 2000,-22000 4000,-45000 4000,-69000zm-342000 -905000c164000,44000 302000,110000 415000,199000 34000,28000 66000,56000 95000,86000l8000 9000c23000,25000 44000,50000 63000,76000l7000 10000c26000,37000 48000,75000 68000,115000 -55000,-113000 -135000,-211000 -241000,-296000 -109000,-86000 -243000,-152000 -400000,-195000l-15000 -4000 0 0zm619000 1360000c-15000,24000 -32000,48000 -50000,71000 -49000,63000 -109000,120000 -178000,173000 -88000,67000 -187000,121000 -295000,163000l-14000 5000c-54000,21000 -112000,38000 -171000,52000l-30000 7000 -15000 3000 -16000 3000c-46000,9000 -93000,16000 -142000,22000l-33000 3000 -33000 3000c-56000,4000 -114000,6000 -173000,6000l-1322000 0 0 -3294000 2178000 0 0 298000 -1777000 0 0 1064000 921000 0c77000,0 151000,3000 222000,9000l69000 7000 17000 2000c73000,10000 143000,23000 208000,39000 -151000,-38000 -323000,-57000 -516000,-57000l-921000 0 0 0 0 0 0 -1064000 0 0 0 0 1777000 0 0 -298000 -2178000 0 0 3294000 1322000 0c190000,0 361000,-22000 515000,-66000 153000,-45000 289000,-112000 406000,-201000 96000,-72000 172000,-154000 229000,-244000l0 0zm41000 -75000c-7000,15000 -14000,29000 -22000,43000l17000 -32000 5000 -11000 0 0zm83000 -380000c0,50000 -3000,97000 -10000,144000l-4000 25000 -3000 12000 -2000 13000 -9000 36000c-6000,24000 -13000,48000 -21000,71000 -10000,27000 -21000,53000 -34000,79000 55000,-114000 83000,-240000 83000,-380000 0,-141000 -25000,-269000 -74000,-382000 15000,34000 27000,70000 38000,106000l2000 6000 8000 34000 5000 23000 1000 4000 7000 36000c5000,34000 9000,69000 11000,105000 1000,22000 2000,45000 2000,68000l0 0zm-3301000 966000l-2200000 0 0 -3295000 2200000 0 0 299000 -1799000 0 0 1189000 1740000 0 0 298000 -1740000 0 0 1211000 1799000 0 0 298000 0 0zm-2997000 0l-401000 0 0 -2925000 -1523000 2925000 -336000 0 -1523000 -2925000 0 2925000 -401000 0 0 -3295000 618000 0 1474000 2806000 1474000 -2806000 618000 0 0 3295000 0 0zm-5488000 -2086000c246000,0 445000,196000 445000,439000 0,242000 -199000,439000 -445000,439000 -245000,0 -444000,-197000 -444000,-439000 0,-243000 199000,-439000 444000,-439000zm-3231000 2086000l-401000 0 0 -3295000 401000 0 0 3295000zm2363000 0l-498000 0 -1588000 -1687000 1544000 -1608000 477000 0 -1545000 1572000 1610000 1723000 0 0z"/>
     <path id="1" class="fil1 str0" d="M24910000 22796000c0,-169000 -57000,-311000 -169000,-427000 -151000,-161000 -384000,-241000 -699000,-241000l-927000 0 0 1336000 927000 0c311000,0 542000,-79000 694000,-236000 116000,-122000 174000,-266000 174000,-432000zm401000 0c0,288000 -118000,521000 -353000,699000 -235000,178000 -542000,267000 -921000,267000l-1323000 0 0 -3295000 401000 0 0 1363000 922000 0c401000,0 714000,86000 938000,258000 224000,172000 336000,408000 336000,708000zm-907000 623000c136000,-39000 247000,-103000 332000,-191000 48000,-50000 86000,-105000 114000,-163000l2000 -3000 6000 -13000c23000,-53000 39000,-110000 47000,-169000 -7000,52000 -20000,102000 -39000,149000 -29000,72000 -72000,139000 -130000,199000 -76000,79000 -172000,138000 -287000,177000 -15000,5000 -29000,10000 -45000,14000l0 0zm-220000 -1285000c-46000,-4000 -93000,-6000 -142000,-6000l-927000 0 0 1336000 927000 0c39000,0 77000,-1000 113000,-4000 -36000,3000 -74000,4000 -113000,4000l-927000 0 0 0 0 0 0 -1336000 0 0 0 0 927000 0c49000,0 96000,2000 142000,6000l0 0zm117000 15000c-25000,-4000 -51000,-8000 -77000,-11000 26000,3000 52000,7000 77000,11000zm293000 103000c-40000,-23000 -84000,-43000 -130000,-60000 -38000,-13000 -78000,-25000 -120000,-34000 38000,8000 74000,18000 109000,30000 51000,18000 98000,39000 141000,64000l0 0zm232000 227000c-23000,-39000 -51000,-76000 -85000,-110000 -35000,-38000 -75000,-71000 -120000,-100000 45000,29000 85000,62000 121000,100000 33000,34000 61000,71000 84000,110000zm33000 64000c-9000,-22000 -20000,-43000 -33000,-64000 13000,21000 24000,42000 33000,64000zm29000 81000c-6000,-23000 -14000,-46000 -23000,-68000l3000 6000c7000,21000 14000,41000 20000,62000zm22000 172000c0,-29000 -2000,-57000 -5000,-85000 3000,28000 5000,56000 5000,85000 0,24000 -2000,46000 -4000,69000 2000,-23000 4000,-45000 4000,-69000zm-164000 -841000c84000,37000 161000,81000 229000,133000 44000,34000 84000,71000 119000,110000l5000 5000 6000 7000c11000,13000 22000,26000 32000,38000l4000 5000 7000 10000 4000 5000 14000 20000c18000,27000 35000,55000 50000,85000 7000,14000 14000,29000 21000,44000l14000 34000 8000 23000 5000 12000c5000,15000 10000,32000 14000,48000l3000 12000c4000,16000 8000,33000 11000,50000 6000,29000 10000,60000 14000,91000 2000,29000 4000,58000 5000,88000 -3000,-141000 -31000,-268000 -84000,-381000 -56000,-117000 -141000,-220000 -253000,-306000 -67000,-52000 -144000,-96000 -228000,-133000zm-80000 -31000c27000,10000 53000,20000 78000,31000 -25000,-11000 -51000,-21000 -78000,-31000zm645000 872000c0,45000 -3000,89000 -9000,131000l-2000 13000 -4000 25000 -2000 11000 0 3000 -2000 8000 -1000 4000 -8000 35000c-4000,16000 -9000,32000 -14000,47000l-8000 24000c-14000,38000 -30000,75000 -50000,111000l0 1000c-59000,107000 -143000,203000 -253000,286000 -77000,59000 -162000,107000 -254000,147000 -31000,13000 -63000,25000 -95000,36000l-43000 13000 -43000 13000 -45000 11000 -45000 10000 -31000 6000 -46000 8000c-27000,4000 -54000,7000 -81000,11000l-32000 3000c-66000,6000 -135000,9000 -206000,9000l-1323000 0 0 -3295000 401000 0 0 1363000 922000 0c56000,0 110000,2000 163000,5000l1000 0c30000,2000 58000,4000 86000,7000l17000 2000 15000 2000 10000 1000 9000 1000 33000 5000 16000 2000 16000 3000 16000 3000c87000,15000 169000,36000 244000,62000 -29000,-10000 -60000,-20000 -91000,-28000 -156000,-43000 -335000,-65000 -535000,-65000l-922000 0 0 0 0 0 0 -1362000 -401000 0 0 3294000 1323000 0c189000,0 361000,-22000 515000,-67000 153000,-44000 289000,-111000 406000,-200000 117000,-89000 206000,-192000 265000,-308000 58000,-117000 88000,-247000 88000,-391000l-1000 -21000 1000 21000 0 0zm-3046000 966000l-440000 0 -1403000 -2880000 -1415000 2880000 -439000 0 1664000 -3295000 379000 0 1654000 3295000 0 0zm-4049000 0l-2201000 0 0 -3295000 2201000 0 0 299000 -1800000 0 0 1189000 1740000 0 0 298000 -1740000 0 0 1211000 1800000 0 0 298000 0 0zm-3149000 -966000c0,-169000 -56000,-311000 -168000,-427000 -152000,-161000 -385000,-241000 -699000,-241000l-927000 0 0 1336000 927000 0c310000,0 542000,-79000 693000,-236000 116000,-122000 174000,-266000 174000,-432000zm401000 0c0,288000 -117000,521000 -352000,699000 -235000,178000 -542000,267000 -922000,267000l-1322000 0 0 -3295000 2178000 0 0 299000 -1777000 0 0 1064000 921000 0c412000,0 728000,87000 946000,260000 219000,174000 328000,409000 328000,706000l0 0zm-428000 185000c5000,-16000 10000,-33000 13000,-50000 -3000,17000 -8000,34000 -13000,50000zm-249000 333000c38000,-25000 72000,-54000 102000,-86000 40000,-42000 73000,-86000 99000,-133000 13000,-24000 25000,-48000 34000,-73000l-2000 7000c-29000,72000 -73000,139000 -130000,199000 -31000,32000 -65000,61000 -103000,86000zm-73000 43000c23000,-11000 44000,-24000 64000,-37000 -20000,13000 -41000,26000 -64000,37000zm-155000 61000c56000,-16000 108000,-36000 155000,-61000 -35000,19000 -72000,35000 -112000,48000l-43000 13000zm-222000 -1284000c-45000,-4000 -92000,-6000 -141000,-6000l-927000 0 0 1336000 927000 0c39000,0 76000,-1000 112000,-4000 -36000,3000 -73000,4000 -112000,4000l-927000 0 0 0 0 0 0 -1336000 0 0 0 0 927000 0c49000,0 96000,2000 141000,6000l0 0zm117000 15000c-37000,-6000 -76000,-11000 -117000,-15000 41000,4000 80000,9000 117000,15000zm49000 10000c-16000,-3000 -32000,-7000 -49000,-10000 17000,3000 33000,7000 49000,10000zm448000 277000c-16000,-23000 -35000,-46000 -56000,-67000 -74000,-78000 -166000,-137000 -278000,-177000 -36000,-13000 -74000,-24000 -114000,-33000 36000,8000 71000,18000 103000,29000 117000,40000 213000,101000 289000,181000 21000,21000 39000,44000 56000,67000l0 0zm62000 107000c-17000,-37000 -37000,-72000 -61000,-106000 24000,34000 44000,69000 61000,106000zm28000 81000c-6000,-23000 -14000,-46000 -23000,-68000l3000 6000c8000,21000 14000,41000 20000,62000zm22000 172000c0,-29000 -2000,-57000 -5000,-85000 3000,28000 5000,56000 5000,85000 0,24000 -1000,47000 -4000,69000 2000,-22000 4000,-45000 4000,-69000zm-342000 -905000c164000,44000 302000,110000 415000,199000 34000,28000 66000,56000 95000,86000l8000 9000c23000,25000 44000,50000 63000,76000l7000 10000c26000,37000 48000,75000 68000,115000 -55000,-113000 -135000,-211000 -241000,-296000 -109000,-86000 -243000,-152000 -400000,-195000l-15000 -4000 0 0zm619000 1360000c-15000,24000 -32000,48000 -50000,71000 -49000,63000 -109000,120000 -178000,173000 -88000,67000 -187000,121000 -295000,163000l-14000 5000c-54000,21000 -112000,38000 -171000,52000l-30000 7000 -15000 3000 -16000 3000c-46000,9000 -93000,16000 -142000,22000l-33000 3000 -33000 3000c-56000,4000 -114000,6000 -173000,6000l-1322000 0 0 -3294000 2178000 0 0 298000 -1777000 0 0 1064000 921000 0c77000,0 151000,3000 222000,9000l69000 7000 17000 2000c73000,10000 143000,23000 208000,39000 -151000,-38000 -323000,-57000 -516000,-57000l-921000 0 0 0 0 0 0 -1064000 0 0 0 0 1777000 0 0 -298000 -2178000 0 0 3294000 1322000 0c190000,0 361000,-22000 515000,-66000 153000,-45000 289000,-112000 406000,-201000 96000,-72000 172000,-154000 229000,-244000l0 0zm41000 -75000c-7000,15000 -14000,29000 -22000,43000l17000 -32000 5000 -11000 0 0zm83000 -380000c0,50000 -3000,97000 -10000,144000l-4000 25000 -3000 12000 -2000 13000 -9000 36000c-6000,24000 -13000,48000 -21000,71000 -10000,27000 -21000,53000 -34000,79000 55000,-114000 83000,-240000 83000,-380000 0,-141000 -25000,-269000 -74000,-382000 15000,34000 27000,70000 38000,106000l2000 6000 8000 34000 5000 23000 1000 4000 7000 36000c5000,34000 9000,69000 11000,105000 1000,22000 2000,45000 2000,68000l0 0zm-3301000 966000l-2200000 0 0 -3295000 2200000 0 0 299000 -1799000 0 0 1189000 1740000 0 0 298000 -1740000 0 0 1211000 1799000 0 0 298000 0 0zm-2997000 0l-401000 0 0 -2925000 -1523000 2925000 -336000 0 -1523000 -2925000 0 2925000 -401000 0 0 -3295000 618000 0 1474000 2806000 1474000 -2806000 618000 0 0 3295000 0 0zm-5488000 -2086000c246000,0 445000,196000 445000,439000 0,242000 -199000,439000 -445000,439000 -245000,0 -444000,-197000 -444000,-439000 0,-243000 199000,-439000 444000,-439000zm-3231000 2086000l-401000 0 0 -3295000 401000 0 0 3295000zm2363000 0l-498000 0 -1588000 -1687000 1544000 -1608000 477000 0 -1545000 1572000 1610000 1723000 0 0z"/>
    </g>
   </g>
   <line class="fil2 str1" x1="0" y1="200000" x2="25600000" y2= "200000" />
   <line class="fil2 str1" x1="0" y1="25400000" x2="25600000" y2= "25400000" />
  </g>
 </g>
</svg>
